<?xml version="1.0" encoding="UTF-8"?>
<svg width="130px" height="40px" viewBox="0 0 130 40" version="1.1" xmlns="http://www.w3.org/2000/svg" xmlns:xlink="http://www.w3.org/1999/xlink">
    <!-- Generator: Sketch 52.5 (67469) - http://www.bohemiancoding.com/sketch -->
    <title>Logo</title>
    <desc>Created with Sketch.</desc>
    <defs>
        <polygon id="path-1" points="0.0176177606 0.27355 102.786834 0.27355 102.786834 20 0.0176177606 20"></polygon>
        <polygon id="path-3" points="0 0.2092 85.2121892 0.2092 85.2121892 19.6107 0 19.6107"></polygon>
    </defs>
    <g id="Page/Homepage" stroke="none" stroke-width="1" fill="none" fill-rule="evenodd">
        <g id="Homepage/MVP/Profile/Active/EditLocation_375" transform="translate(-80.000000, -22.000000)">
            <g id="Navigation/Main/Desktop_375">
                <g id="Logo" transform="translate(80.000000, 22.000000)">
                    <g id="LOGO">
                        <g>
                            <g id="Group-3" transform="translate(27.104247, 19.790800)">
                                <mask id="mask-2" fill="white">
                                    <use xlink:href="#path-1"></use>
                                </mask>
                                <g id="Clip-2"></g>
                                <path d="M97.1727915,14.26505 L94.2736409,19.51205 L95.110861,19.93905 L97.9688533,14.54955 L101.214838,7.57405 C101.419124,7.24905 102.113293,6.51655 102.337656,6.51655 L102.786884,6.51655 L102.786884,5.78455 L98.887888,5.78455 L98.887888,6.51655 L99.4796641,6.51655 C99.7451853,6.51655 100.336961,7.18805 100.316884,7.57405 L98.1937181,12.27205 L95.8662664,7.55405 C95.8662664,7.18805 96.4379653,6.51655 96.7034865,6.51655 L97.2952625,6.51655 L97.2952625,5.78455 L92.1098185,5.78455 L92.1098185,6.51655 L92.5384672,6.51655 C92.7834093,6.51655 93.6206293,7.31005 93.7837568,7.61505 L97.1727915,14.26505 Z M91.0688147,8.32655 C91.0688147,6.67955 89.8847606,5.58105 88.394529,5.58105 C86.6593552,5.58105 85.7608996,6.57755 84.5974247,7.75705 L84.2300116,5.78455 L81.1878108,5.78455 L81.1878108,6.51655 L81.7800888,6.51655 C82.0656873,6.51655 82.8416718,7.22855 82.8416718,7.53355 L82.8416718,13.59405 C82.8416718,13.91905 82.0656873,14.61055 81.7800888,14.61055 L81.1878108,14.61055 L81.1878108,15.34305 L86.2307066,15.34305 L86.2307066,14.61055 L85.6790849,14.61055 C85.3934865,14.61055 84.6175019,13.91905 84.6175019,13.59405 L84.6175019,8.77405 C84.6175019,8.12355 86.393834,6.78105 87.7615946,6.78105 C88.8025985,6.78105 89.2929846,7.49305 89.2929846,8.42855 L89.2929846,13.59405 C89.2929846,13.91905 88.517,14.61055 88.2314015,14.61055 L87.6797799,14.61055 L87.6797799,15.34305 L92.7226757,15.34305 L92.7226757,14.61055 L92.1303977,14.61055 C91.8447992,14.61055 91.0688147,13.91905 91.0688147,13.59405 L91.0688147,8.32655 Z M81.1878108,15.34305 L81.1878108,14.61055 L80.616112,14.61055 C80.3510927,14.61055 79.554529,13.91905 79.554529,13.59405 L79.554529,8.44855 C79.554529,6.55755 77.9212471,5.54055 75.8392394,5.54055 C73.8792008,5.54055 72.6339112,6.25255 71.8378494,7.06605 L73.1237954,8.99805 L73.8179653,8.99805 C73.1032162,7.35055 73.7567297,6.25255 75.4105907,6.25255 C77.1457645,6.25255 77.7987761,7.06605 77.7786988,8.42855 L77.7581197,9.56705 L75.2675405,10.07555 C73.8997799,10.36055 72.1234479,11.01105 72.1234479,12.92305 C72.1234479,14.48855 73.2668456,15.52605 74.5939498,15.52605 C76.0229459,15.52605 77.0433707,14.36655 77.8193552,13.37005 L78.0642973,15.34305 L81.1878108,15.34305 Z M77.7786988,12.51605 C77.3701274,13.22805 76.3492008,14.20405 75.4105907,14.20405 C74.4508996,14.20405 73.8586216,13.51255 73.8586216,12.67855 C73.8586216,11.72305 74.2671931,11.09255 75.4718263,10.78755 L77.7786988,10.19755 L77.7786988,12.51605 Z M60.2010927,5.78455 L60.2010927,6.51655 L60.834027,6.51655 C61.1201274,6.51655 61.8549537,7.22855 61.8549537,7.53355 L61.8549537,18.25105 C61.8549537,18.57655 61.1201274,19.26805 60.834027,19.26805 L60.2010927,19.26805 L60.2010927,20.00005 L65.3052239,20.00005 L65.3052239,19.26805 L64.6722896,19.26805 C64.4067683,19.26805 63.6513629,18.57655 63.6513629,18.25105 L63.6513629,13.65505 C64.3455328,14.89555 65.2439884,15.54605 66.9385058,15.54605 C69.2860347,15.54605 70.9193166,13.37005 70.9193166,10.42155 C70.9193166,7.47255 69.4903205,5.54055 67.1422896,5.54055 C65.550166,5.54055 64.488583,6.21155 63.6513629,7.75705 L63.3246062,5.78455 L60.2010927,5.78455 Z M66.6524054,6.67955 C68.0407452,6.67955 68.8779653,7.65555 69.081749,9.18105 C69.2042201,10.07555 69.1841429,11.05205 69.0616718,11.96705 C68.8573861,13.49205 68.0814015,14.52955 66.4280425,14.52955 C64.7947606,14.52955 63.6307838,13.24805 63.6307838,11.74305 L63.6307838,9.30305 C64.1005907,7.79805 65.0191236,6.67955 66.6524054,6.67955 Z M58.6702046,8.32655 C58.6702046,6.57755 57.4861506,5.60155 56.0365753,5.60155 C54.4037954,5.60155 53.64839,6.45555 52.4643359,7.61505 C52.2801274,6.27255 51.1984672,5.58105 49.9120193,5.58105 C48.2175019,5.58105 47.5032548,6.47605 46.4010154,7.63505 L46.0130232,5.78455 L43.0526371,5.78455 L43.0526371,6.51655 L43.6037568,6.51655 C43.8898571,6.51655 44.6246834,7.22855 44.6246834,7.53355 L44.6246834,13.59405 C44.6246834,13.91905 43.8898571,14.61055 43.6037568,14.61055 L43.0526371,14.61055 L43.0526371,15.34305 L47.9725598,15.34305 L47.9725598,14.61055 L47.4214402,14.61055 C47.1358417,14.61055 46.4010154,13.91905 46.4010154,13.59405 L46.4010154,8.67255 C46.4010154,8.02155 47.9725598,6.74055 49.2384286,6.74055 C50.2799344,6.74055 50.7698185,7.39105 50.7698185,8.32655 L50.7698185,13.59405 C50.7698185,13.91905 50.0344903,14.61055 49.7488919,14.61055 L49.1977722,14.61055 L49.1977722,15.34305 L54.117695,15.34305 L54.117695,14.61055 L53.5665753,14.61055 C53.2809768,14.61055 52.5456486,13.91905 52.5456486,13.59405 L52.5456486,8.61155 C52.5456486,7.96055 54.117695,6.74055 55.3835637,6.74055 C56.4245676,6.74055 56.8943745,7.39105 56.8943745,8.32655 L56.8943745,13.59405 C56.8943745,13.91905 56.1590463,14.61055 55.8734479,14.61055 L55.3223282,14.61055 L55.3223282,15.34305 L60.242251,15.34305 L60.242251,14.61055 L59.6911313,14.61055 C59.4055328,14.61055 58.6702046,13.91905 58.6702046,13.59405 L58.6702046,8.32655 Z M37.744722,15.60705 C40.2965367,15.60705 42.5421737,13.67505 42.5421737,10.56355 C42.5421737,7.45205 40.2965367,5.54055 37.744722,5.54055 C35.1929073,5.54055 32.9266911,7.45205 32.9266911,10.56355 C32.9266911,13.67505 35.1929073,15.60705 37.744722,15.60705 Z M37.7653012,14.67155 C35.9889691,14.67155 35.151749,13.59405 34.9273861,12.10955 C34.7843359,11.15355 34.7843359,9.85205 34.9273861,8.91655 C35.151749,7.39105 36.0296255,6.37455 37.7653012,6.37455 C39.5617104,6.37455 40.4190077,7.39105 40.6027143,8.93705 C40.7251853,9.91305 40.7251853,11.15355 40.6027143,12.12955 C40.4190077,13.63455 39.5822896,14.67155 37.7653012,14.67155 Z M30.436112,5.78455 L31.0690463,5.78455 L31.0690463,0.53755 L30.5179266,0.53755 C30.2930618,0.80205 30.0686988,0.92405 29.5988919,0.92405 C28.435417,0.92405 27.4350695,0.27355 25.842444,0.27355 C21.6779266,0.27355 19.1873475,3.64905 19.1873475,7.87955 C19.1873475,12.10955 21.9434479,15.60705 26.2098571,15.60705 C29.1702432,15.60705 31.2527529,14.02105 32.2119421,11.37705 L31.4364595,11.37705 C30.4767683,13.32955 29.2314788,14.36655 26.6590849,14.36655 C23.6379653,14.36655 21.8410541,12.27205 21.596112,9.68905 C21.4942201,8.38755 21.4535637,7.22855 21.5554556,5.92705 C21.8209768,2.59155 23.3518649,1.16805 25.9242587,1.16805 C28.7210154,1.16805 30.436112,4.25955 30.436112,5.78455 Z M2.73255985,7.14705 C4.59070656,9.26205 6.99947104,11.58055 9.16379537,13.43105 C8.32657529,14.06155 7.26499228,14.42755 5.93788803,14.42755 C3.81472201,14.42755 1.54850579,12.39405 1.54850579,10.27905 C1.54850579,8.75355 1.95707722,7.94055 2.73255985,7.14705 Z M4.73325483,1.04605 C6.71387259,1.04605 8.1835251,3.03905 8.1835251,4.03555 L8.81645946,4.03555 L8.81645946,0.53755 L8.1835251,0.53755 C8.02039768,0.78155 7.81611197,0.80205 7.48935521,0.80205 C6.85692278,0.80205 6.14217375,0.35455 4.77441313,0.35455 C2.59001158,0.35455 1.20167181,1.53405 1.20167181,3.64905 C1.20167181,4.95055 1.69155598,5.82505 2.40630502,6.74055 C1.05862162,7.67605 0.0176177606,9.18105 0.0176177606,11.23505 C0.0176177606,13.83805 2.32449035,15.60705 4.73325483,15.60705 C6.9181583,15.60705 8.42846718,14.97705 9.61252124,13.83805 C10.8377336,14.95655 11.8586602,15.34305 13.3077336,15.34305 L14.9003591,15.34305 L14.9003591,14.61055 L14.0224826,14.61055 C13.1651853,14.02105 12.0830232,13.14655 11.000861,12.21105 C11.939973,10.86905 12.2873089,9.38405 12.3279653,8.12355 C12.3485444,7.67605 13.3689691,6.51655 13.6550695,6.51655 L14.2267683,6.51655 L14.2267683,5.78455 L8.95950965,5.78455 L8.95950965,6.51655 C10.4090849,6.55755 11.3070386,7.37105 11.3070386,8.73355 C11.3070386,9.95355 11.1032548,10.86905 10.531556,11.80405 C8.51028185,10.01455 6.20340927,7.83855 4.28452896,5.78455 C2.99808108,5.29655 2.18144015,4.34055 2.18144015,3.16105 C2.18144015,1.81905 3.14113127,1.04605 4.73325483,1.04605 Z" id="Fill-1" fill="#051C2C" mask="url(#mask-2)"></path>
                            </g>
                            <g id="Group-6" transform="translate(0.000000, 0.290800)">
                                <mask id="mask-4" fill="white">
                                    <use xlink:href="#path-3"></use>
                                </mask>
                                <g id="Clip-5"></g>
                                <path d="M79.5980965,13.9367 L76.6989459,19.1837 L77.536166,19.6107 L80.3941583,14.2212 L83.6401429,7.2457 C83.8444286,6.9207 84.5385985,6.1882 84.7629614,6.1882 L85.2121892,6.1882 L85.2121892,5.4562 L81.3131931,5.4562 L81.3131931,6.1882 L81.9049691,6.1882 C82.1704903,6.1882 82.7622664,6.8597 82.7421892,7.2457 L80.6190232,11.9437 L78.2915714,7.2257 C78.2915714,6.8597 78.8632703,6.1882 79.1287915,6.1882 L79.7205676,6.1882 L79.7205676,5.4562 L74.5351236,5.4562 L74.5351236,6.1882 L74.9637722,6.1882 C75.2087143,6.1882 76.0459344,6.9817 76.2090618,7.2867 L79.5980965,13.9367 Z M70.7992548,15.2382 C73.1673629,15.2382 74.4126525,13.9572 75.0455869,11.8622 L74.4533089,11.8622 C73.8409537,12.9607 73.0649691,13.5097 71.4321892,13.5097 C69.2477876,13.5097 67.9819189,11.5372 67.9407606,9.7882 L74.351417,9.2797 L74.3107606,8.5882 C74.2083668,6.7172 72.9836564,5.2527 70.7992548,5.2327 C68.3086757,5.2122 66.3692162,7.4087 66.3692162,10.2557 C66.3692162,12.9607 68.2474402,15.2382 70.7992548,15.2382 Z M67.8795251,9.1167 C67.9407606,7.6122 68.7574015,5.9647 70.7580965,5.9647 C72.6363205,5.9647 72.8406062,7.3477 72.6774788,8.7102 L67.8795251,9.1167 Z M58.2846216,11.6387 L58.2846216,15.0147 L58.7544286,15.0147 C58.9993707,14.7907 59.1012625,14.6892 59.4892548,14.6892 C60.3264749,14.6892 61.040722,15.2382 62.2659344,15.2382 C64.0829228,15.2382 65.3482896,14.1807 65.3482896,12.3502 C65.3482896,10.8047 64.1642355,9.9712 63.1232317,9.5642 C62.3271699,9.2592 61.7760502,9.0152 61.040722,8.7102 C60.0403745,8.2832 59.4686757,7.9982 59.4686757,7.1647 C59.4686757,6.4122 59.9997181,5.9442 61.1225367,5.9442 C62.9189459,5.9442 64.0417645,7.6322 64.0417645,8.4252 L64.6340425,8.4252 L64.6340425,5.4562 L64.103,5.4562 C64.0216873,5.6597 63.8580579,5.7207 63.5724595,5.7207 C62.8376332,5.7207 62.2453552,5.2327 61.1837722,5.2327 C59.4074402,5.2327 58.2846216,6.1477 58.2846216,7.8762 C58.2846216,9.1982 59.1624981,9.9507 60.3264749,10.4797 C61.1019575,10.8252 61.6535792,11.0487 62.3271699,11.3337 C63.1844672,11.6997 64.1441583,12.0657 64.1441583,13.1437 C64.1441583,14.0382 63.4700656,14.4452 62.2659344,14.4452 C60.1834247,14.4452 58.8768996,12.5337 58.8768996,11.6387 L58.2846216,11.6387 Z M56.0189073,7.9982 C56.0189073,6.3512 54.8348533,5.2527 53.3446216,5.2527 C51.6094479,5.2527 50.7109923,6.2492 49.5475174,7.4287 L49.1801042,5.4562 L46.1379035,5.4562 L46.1379035,6.1882 L46.7301815,6.1882 C47.0157799,6.1882 47.7917645,6.9002 47.7917645,7.2052 L47.7917645,13.2657 C47.7917645,13.5912 47.0157799,14.2822 46.7301815,14.2822 L46.1379035,14.2822 L46.1379035,15.0147 L51.1807992,15.0147 L51.1807992,14.2822 L50.6291776,14.2822 C50.3435792,14.2822 49.5675946,13.5912 49.5675946,13.2657 L49.5675946,8.4457 C49.5675946,7.7952 51.3439266,6.4527 52.7116873,6.4527 C53.7526911,6.4527 54.2430772,7.1647 54.2430772,8.1002 L54.2430772,13.2657 C54.2430772,13.5912 53.4670927,14.2822 53.1814942,14.2822 L52.6298726,14.2822 L52.6298726,15.0147 L57.6727683,15.0147 L57.6727683,14.2822 L57.0804903,14.2822 C56.7948919,14.2822 56.0189073,13.5912 56.0189073,13.2657 L56.0189073,7.9982 Z M41.0342741,5.4562 L41.0342741,6.1882 L41.6260502,6.1882 C41.9121506,6.1882 42.6876332,6.9002 42.6876332,7.2052 L42.6876332,13.2657 C42.6876332,13.5912 41.9121506,14.2822 41.6260502,14.2822 L41.0342741,14.2822 L41.0342741,15.0147 L46.1379035,15.0147 L46.1379035,14.2822 L45.5461274,14.2822 C45.2806062,14.2822 44.4845444,13.5912 44.4845444,13.2657 L44.4845444,5.4562 L41.0342741,5.4562 Z M42.1365135,1.8972 C42.1365135,2.6497 42.6876332,3.1377 43.4023822,3.1377 C44.1171313,3.1377 44.6476718,2.6497 44.6476718,1.8972 C44.6476718,1.1447 44.1171313,0.6772 43.4023822,0.6772 C42.6876332,0.6772 42.1365135,1.1447 42.1365135,1.8972 Z M30.7246216,8.1202 L30.7246216,2.0602 C30.7246216,1.7552 31.5824208,0.9417 31.8680193,0.9417 L32.6028456,0.9417 L32.6028456,0.2092 L26.8050463,0.2092 L26.8050463,0.9417 L27.5398726,0.9417 C27.825973,0.9417 28.6832703,1.7552 28.6832703,2.0602 L28.6832703,13.1637 C28.6832703,13.4692 27.825973,14.2822 27.5398726,14.2822 L26.8050463,14.2822 L26.8050463,15.0147 L32.6028456,15.0147 L32.6028456,14.2822 L31.8680193,14.2822 C31.5824208,14.2822 30.7246216,13.4692 30.7246216,13.1637 L30.7246216,9.2387 L32.2354324,7.6122 L37.3802201,15.0147 L41.0342741,15.0147 L41.0342741,14.2822 L40.54439,14.2822 C40.2382124,14.2822 39.0335792,13.3672 38.7886371,13.0417 L33.5826139,6.1477 L37.1965135,2.2837 C37.4002973,2.0602 38.8092162,0.9417 39.0948147,0.9417 L39.8095637,0.9417 L39.8095637,0.2092 L34.419834,0.2092 L34.419834,0.9417 L35.134583,0.9417 C35.4201815,0.9417 36.2574015,1.9582 36.0325367,2.2227 L30.7246216,8.1202 Z M23.9676332,8.7507 L24.5594093,8.7102 L25.9683282,6.5342 C25.0904517,5.6597 24.0695251,5.2122 22.5587143,5.2122 C20.0274788,5.2122 17.9655483,7.2052 17.9655483,10.2962 C17.9655483,13.0217 19.700722,15.2587 22.3750077,15.2587 C24.7842741,15.2587 26.0702201,13.9367 26.7031544,11.8422 L26.1108764,11.8422 C25.4372857,12.9607 24.7230386,13.5097 23.0485985,13.5097 C20.8441197,13.5097 19.4964363,11.8217 19.4964363,9.6862 C19.4964363,7.4287 20.415471,5.9442 22.3343514,5.9442 C23.9877104,5.9442 24.2326525,7.2662 23.9676332,8.7507 Z M1.87817375,13.1637 C1.87817375,13.4692 1.02087645,14.2822 0.734776062,14.2822 L-5.01930502e-05,14.2822 L-5.01930502e-05,15.0147 L4.63427413,15.0147 L4.63427413,14.2822 L3.89944788,14.2822 C3.61334749,14.2822 2.75605019,13.4692 2.75605019,13.1637 L2.75605019,2.1617 L8.16585714,15.2787 L13.576166,2.3852 L13.576166,13.1637 C13.576166,13.4692 12.7188687,14.2822 12.4327683,14.2822 L11.6979421,14.2822 L11.6979421,15.0147 L17.4550849,15.0147 L17.4550849,14.2822 L16.7202587,14.2822 C16.4341583,14.2822 15.576861,13.4692 15.576861,13.1637 L15.576861,2.0602 C15.576861,1.7552 16.4341583,0.9417 16.7202587,0.9417 L17.4550849,0.9417 L17.4550849,0.2092 L13.576166,0.2092 L8.88060618,11.3132 L8.77871429,11.3132 L4.30751737,0.2092 L-5.01930502e-05,0.2092 L-5.01930502e-05,0.9417 L0.734776062,0.9417 C1.02087645,0.9417 1.87817375,1.7552 1.87817375,2.0602 L1.87817375,13.1637 Z" id="Fill-4" fill="#051C2C" mask="url(#mask-4)"></path>
                            </g>
                        </g>
                    </g>
                </g>
            </g>
        </g>
    </g>
</svg>